<svg id="katman_1" data-name="katman 1" xmlns="http://www.w3.org/2000/svg" xmlns:xlink="http://www.w3.org/1999/xlink" viewBox="0 0 666 444"><defs><linearGradient id="Adsız_degrade_320" x1="180.21" y1="735.8" x2="843.79" y2="288.21" gradientUnits="userSpaceOnUse"><stop offset="0" stop-color="#52c"/><stop offset="1" stop-color="#af00ff"/></linearGradient><linearGradient id="Adsız_degrade_320-2" x1="370.32" y1="532.69" x2="431.68" y2="491.31" xlink:href="#Adsız_degrade_320"/><linearGradient id="Adsız_degrade_320-3" x1="592.32" y1="532.69" x2="653.68" y2="491.31" xlink:href="#Adsız_degrade_320"/></defs><path d="M401,290c-122.61,0-222,99.39-222,222V734H623c122.61,0,222-99.39,222-222V290ZM623,623H401a111,111,0,0,1,0-222H623a111,111,0,0,1,0,222Z" transform="translate(-179 -290)" fill="url(#Adsız_degrade_320)"/><path d="M438,512a37,37,0,0,1-33.95,36.86c-1,.1-2,.14-3.05.14a37,37,0,0,1,0-74c1,0,2.05,0,3.05.14A37,37,0,0,1,438,512Z" transform="translate(-179 -290)" fill="url(#Adsız_degrade_320-2)"/><path d="M660,512a37,37,0,0,1-37,37c-1,0-2,0-3-.14a37,37,0,0,1,0-73.72c1-.1,2-.14,3-.14A37,37,0,0,1,660,512Z" transform="translate(-179 -290)" fill="url(#Adsız_degrade_320-3)"/></svg>